<?xml version="1.0" encoding="UTF-8"?> <svg xmlns="http://www.w3.org/2000/svg" width="139" height="30" viewBox="0 0 139 30" fill="none"><path d="M0 10.7353C0 4.52778 4.10675 0.5 10.4722 0.5C12.3045 0.5 14.1209 0.831699 15.5899 1.40033V7.24455C14.3263 6.72331 12.8731 6.39161 11.4515 6.39161C7.88181 6.39161 6.82353 8.50817 6.74456 10.4984H12.5098V16.2636H6.5866V28.9314H0V10.7353Z" fill="#FFFFE7"></path><path fill-rule="evenodd" clip-rule="evenodd" d="M13.5208 18.3644C13.5208 11.4935 18.2277 7.22876 24.688 7.22876C31.1482 7.22876 35.8552 11.4935 35.8552 18.3644C35.8552 25.2353 31.1482 29.5 24.688 29.5C18.2277 29.5 13.5208 25.2353 13.5208 18.3644ZM24.688 23.5768C27.3258 23.5768 29.158 21.4602 29.158 18.3802C29.158 15.3001 27.3258 13.1836 24.688 13.1836C22.0502 13.1836 20.2179 15.3001 20.2179 18.3802C20.2179 21.4602 22.0502 23.5768 24.688 23.5768Z" fill="#FFFFE7"></path><path fill-rule="evenodd" clip-rule="evenodd" d="M48.2386 7.22876C41.7783 7.22876 37.0714 11.4935 37.0714 18.3644C37.0714 25.2353 41.7941 29.5 48.2386 29.5C54.6988 29.5 59.4058 25.2353 59.4058 18.3644C59.4058 11.4935 54.6988 7.22876 48.2386 7.22876ZM52.7086 18.3802C52.7086 21.4602 50.8764 23.5768 48.2386 23.5768C45.6008 23.5768 43.7843 21.4602 43.7685 18.3802C43.7685 15.3001 45.6008 13.1836 48.2386 13.1836C50.8764 13.1836 52.7086 15.3001 52.7086 18.3802Z" fill="#FFFFE7"></path><path fill-rule="evenodd" clip-rule="evenodd" d="M60.6378 18.2064C60.6378 12.0779 64.4603 7.3235 69.4989 7.3235C72.7054 7.3235 75.3905 9.23472 76.1961 12.0305V1.0686H82.7827V18.6961C82.7827 25.1563 78.36 29.5 71.7734 29.5C65.1395 29.5 60.6378 24.951 60.6378 18.2064ZM71.7576 23.5768C74.3954 23.5768 76.1803 21.5076 76.1803 18.3801C76.1803 15.2527 74.3954 13.1835 71.7576 13.1835C69.1199 13.1835 67.335 15.2527 67.335 18.3801C67.335 21.4918 69.1199 23.5768 71.7576 23.5768Z" fill="#FFFFE7"></path><path fill-rule="evenodd" clip-rule="evenodd" d="M95.2767 7.22876C88.8165 7.22876 84.1095 11.4935 84.1095 18.3644C84.1095 25.2353 88.8165 29.5 95.2767 29.5C101.737 29.5 106.444 25.2353 106.444 18.3644C106.444 11.4935 101.737 7.22876 95.2767 7.22876ZM99.7467 18.3802C99.7467 21.4602 97.9145 23.5768 95.2767 23.5768C92.6389 23.5768 90.8067 21.4602 90.8067 18.3802C90.8067 15.3001 92.6389 13.1836 95.2767 13.1836C97.9145 13.1836 99.7467 15.3001 99.7467 18.3802Z" fill="#FFFFE7"></path><path d="M116.964 7.24451C117.895 7.24451 118.748 7.32348 119.57 7.6078V13.373C119.159 13.2941 118.511 13.2151 117.864 13.2151C115.637 13.2151 114.405 14.3997 114.405 16.6742V28.9471H107.818V16.2794C107.834 10.6879 111.325 7.24451 116.964 7.24451Z" fill="#FFFFE7"></path><path fill-rule="evenodd" clip-rule="evenodd" d="M121.513 13.3889C122.618 13.1836 124.198 13.0572 125.414 13.0572C129.647 13.0572 131.59 14.4788 131.59 17.1324V18.7593C130.658 16.3742 128.668 15.1106 125.777 15.1106C121.339 15.1106 118.543 17.8748 118.543 22.2658C118.543 26.6569 121.355 29.4211 125.777 29.4211C128.668 29.4211 130.658 28.1732 131.59 25.7724V28.9472H138.082V16.3584C138.082 10.4668 134.149 7.26038 126.267 7.26038C124.719 7.26038 122.808 7.38674 121.513 7.62367V13.3889ZM131.511 22.1079C131.511 23.4505 130.247 24.3824 128.336 24.3824C126.425 24.3824 125.161 23.4505 125.161 22.1079C125.161 20.7653 126.425 19.8334 128.336 19.8334C130.247 19.8334 131.511 20.7653 131.511 22.1079Z" fill="#FFFFE7"></path></svg> 