<svg width="159" height="142" viewBox="0 0 159 142" fill="none" xmlns="http://www.w3.org/2000/svg">
<g clip-path="url(#clip0_2955_9838)">
<path d="M107.837 120.323H53.5766C40.5895 120.323 30.0255 109.759 30.0255 96.7715V42.5143C30.0255 29.5272 40.5895 18.9633 53.5766 18.9633H107.837C120.824 18.9633 131.388 29.5272 131.388 42.5143V96.7747C131.385 109.759 120.821 120.323 107.837 120.323Z" fill="#F7F7F7"/>
<path d="M46.4407 23.4948V95.6617C46.4407 98.4505 49.2613 100.355 51.8499 99.3123L80.6702 87.6767L109.564 99.3346C112.149 100.378 114.973 98.4728 114.973 95.6839V24.1912C114.973 20.2957 111.841 17.1252 107.945 17.0743L53.6497 16.3779C49.6843 16.327 46.4407 19.5293 46.4407 23.4948Z" fill="#DF1067"/>
<path d="M103.795 51.2212C103.868 50.6392 103.906 50.0477 103.906 49.4435C103.903 42.0278 98.0998 36.0176 90.9448 36.0208C86.7758 36.0239 83.0711 38.0623 80.702 41.2328C78.3297 38.0655 74.6218 36.0271 70.456 36.0303C63.301 36.0335 57.5007 42.0469 57.5039 49.4626C57.5039 51.3229 57.8696 53.0974 58.531 54.7064C60.28 59.5846 65.4539 67.8939 80.7497 74.7722C100.924 65.6806 103.474 54.1118 103.795 51.2212Z" fill="#FFE5E9"/>
<path d="M80.2791 66.5456C81.4329 66.5456 82.3683 65.6102 82.3683 64.4563C82.3683 63.3025 81.4329 62.3671 80.2791 62.3671C79.1252 62.3671 78.1898 63.3025 78.1898 64.4563C78.1898 65.6102 79.1252 66.5456 80.2791 66.5456Z" fill="#0A4342"/>
<path d="M84.3845 55.689C84.9633 55.2947 85.6851 54.7286 86.3211 53.9559C88.1973 51.6822 87.8825 49.5198 87.1575 48.0093C86.3656 46.3525 83.7644 44.6735 80.3077 44.9152C75.4328 45.2586 73.6266 48.8933 73.6838 50.9699C73.7092 51.9048 74.3802 52.6553 75.312 52.7221C76.2469 52.7888 77.1691 52.2005 77.2359 51.2656C77.2422 51.1575 77.627 48.5531 80.5462 48.2955C82.3207 48.1397 83.4114 48.8615 83.739 49.4975C83.739 49.4975 84.4386 50.7854 83.5259 51.8794C83.1157 52.3723 82.7691 52.6489 82.2825 53.0305L80.9851 54.1149C78.2471 56.8942 78.7464 59.6608 78.7464 59.6608C78.8322 60.6212 79.5064 61.3558 80.4413 61.3558C81.3762 61.3558 82.1362 60.5957 82.1362 59.6608V59.1202C82.203 58.4111 82.3302 57.6161 83.0743 56.7861C83.0775 56.7797 83.9997 55.9498 84.3845 55.689Z" fill="#0A4342"/>
</g>
<defs>
<clipPath id="clip0_2955_9838">
<rect width="159" height="142" fill="white"/>
</clipPath>
</defs>
</svg>
